<svg xmlns="http://www.w3.org/2000/svg" x="0px" y="0px"
width="64" height="64"
viewBox="0 0 172 172"
style=" fill:#000000;"><g fill="none" fill-rule="nonzero" stroke="none" stroke-width="1" stroke-linecap="butt" stroke-linejoin="miter" stroke-miterlimit="10" stroke-dasharray="" stroke-dashoffset="0" font-family="none" font-weight="none" font-size="none" text-anchor="none" style="mix-blend-mode: normal"><path d="M0,172v-172h172v172z" fill="none"></path><path d="" fill="none"></path><path d="" fill="none"></path><g id="Layer_1"><path d="M33.73853,33.7417c-28.86168,28.86269 -28.86087,75.65754 0.00182,104.51922c28.86269,28.86168 75.65754,28.86087 104.51922,-0.00182c28.86168,-28.86269 28.86087,-75.65754 -0.00182,-104.51922c-28.86269,-28.86168 -75.65754,-28.86087 -104.51922,0.00182z" fill="#ffffff"></path><path d="M86,163.9375c-20.02187,0 -39.90938,-7.65938 -55.09375,-22.84375c-30.36875,-30.36875 -30.36875,-79.81875 0,-110.1875c30.36875,-30.36875 79.81875,-30.36875 110.1875,0c1.6125,1.6125 1.6125,4.16562 0,5.64375c-1.6125,1.6125 -4.16563,1.6125 -5.64375,0c-27.27812,-27.14375 -71.62187,-27.14375 -98.9,0c-27.14375,27.27813 -27.14375,71.62188 0,98.9c27.27813,27.27813 71.62188,27.27813 98.76563,0c1.6125,-1.6125 4.16562,-1.6125 5.64375,0c1.6125,1.6125 1.6125,4.16563 0,5.64375c-15.05,15.18437 -34.9375,22.84375 -54.95937,22.84375z" fill="#444b54"></path><path d="M139.75,81.96875h-41.3875l13.30313,-13.30312c1.6125,-1.6125 1.6125,-4.16563 0,-5.64375c-1.6125,-1.6125 -4.16562,-1.6125 -5.64375,0l-20.15625,20.15625c-0.80625,0.80625 -1.20938,1.74688 -1.20938,2.82188c0,1.075 0.40313,2.01563 1.20937,2.82187l20.15625,20.15625c0.80625,0.80625 1.88125,1.20938 2.82187,1.20938c0.94062,0 2.01563,-0.40313 2.82187,-1.20938c1.6125,-1.6125 1.6125,-4.16562 0,-5.64375l-13.30312,-13.30312h41.3875c2.28438,0 4.03125,-1.74688 4.03125,-4.03125c0,-2.28437 -1.74687,-4.03125 -4.03125,-4.03125zM159.90625,81.96875c-2.2264,0 -4.03125,1.80485 -4.03125,4.03125c0,2.2264 1.80485,4.03125 4.03125,4.03125c2.2264,0 4.03125,-1.80485 4.03125,-4.03125c0,-2.2264 -1.80485,-4.03125 -4.03125,-4.03125z" fill="#71c2ff"></path></g></g></svg>